<?xml version="1.0" encoding="utf-8" standalone="no"?>
<svg version="1.2" width="512.000000pt" height="512.000000pt" viewBox="0 0 512.000000 512.000000" preserveAspectRatio="xMidYMid meet" baseProfile="tiny-ps" xmlns="http://www.w3.org/2000/svg">
  <title>Code in the Machine</title>
  <g transform="translate(0.000000,512.000000) scale(0.100000,-0.100000)" fill="#000000" stroke="none">
    <path d="M3688 4081 c-41 -4 -62 -12 -72 -26 -14 -18 -15 -18 -16 -2 0 9 -4 17 -10 17 -6 0 -10 -63 -10 -169 0 -197 -13 -372 -41 -564 -11 -76 -19 -152 -17 -169 l3 -31 180 2 c221 2 444 31 483 63 18 15 15 28 -7 28 -17 0 -19 4 -10 32 11 39 12 102 2 112 -4 4 -14 -2 -23 -14 -14 -18 -30 -21 -140 -27 -69 -3 -159 -6 -200 -7 l-75 -1 -3 74 c-2 41 1 78 6 83 5 5 44 12 86 15 45 4 76 10 76 17 0 6 4 5 9 -3 16 -25 31 -1 31 49 0 27 5 52 10 55 6 4 8 11 5 16 -8 12 -177 12 -209 -1 l-26 -10 0 100 0 100 38 -5 c93 -11 332 -16 351 -6 24 13 48 85 56 172 8 80 19 73 -150 94 -122 15 -224 17 -327 6z m125 -798 c-13 -2 -33 -2 -45 0 -13 2 -3 4 22 4 25 0 35 -2 23 -4z" />
    <path d="M2798 4070 c-63 -5 -110 -26 -81 -37 17 -6 16 -251 -2 -433 -8 -85 -18 -219 -22 -297 l-6 -143 -41 0 c-35 0 -38 -2 -26 -14 61 -59 302 -21 454 72 128 77 272 243 310 355 27 79 16 181 -28 266 -31 59 -111 130 -189 166 -119 57 -227 76 -369 65z m298 -282 c59 -54 84 -104 84 -166 0 -41 -6 -57 -33 -91 -19 -23 -53 -56 -78 -72 -45 -31 -114 -69 -124 -69 -3 0 -5 60 -5 134 0 74 -5 169 -11 212 -12 90 -10 94 69 94 48 0 56 -4 98 -42z m-199 -140 c-3 -8 -6 -5 -6 6 -1 11 2 17 5 13 3 -3 4 -12 1 -19z m0 -60 c-3 -7 -5 -2 -5 12 0 14 2 19 5 13 2 -7 2 -19 0 -25z m0 -100 c-3 -7 -5 -2 -5 12 0 14 2 19 5 13 2 -7 2 -19 0 -25z" />
    <path d="M1400 4024 c-25 -8 -87 -35 -138 -60 -192 -95 -328 -281 -377 -516 -17 -80 -20 -224 -5 -263 27 -71 207 -200 335 -241 64 -20 96 -24 204 -24 143 0 245 20 341 67 30 15 63 26 74 24 18 -3 18 -1 -2 26 -11 15 -30 37 -42 48 -37 34 -92 114 -85 125 4 6 -10 4 -32 -6 -111 -48 -153 -52 -271 -28 -105 21 -212 68 -264 114 -42 37 -43 39 -42 99 2 124 134 324 249 377 38 18 68 24 122 24 l71 0 52 71 c54 75 87 139 71 139 -6 0 -13 -5 -16 -11 -5 -7 -13 -5 -25 6 -10 9 -24 14 -30 10 -6 -3 -9 -1 -8 6 7 28 -107 36 -182 13z m127 -20 c-3 -3 -12 -4 -19 -1 -8 3 -5 6 6 6 11 1 17 -2 13 -5z m83 -48 c0 -2 -8 -10 -17 -17 -16 -13 -17 -12 -4 4 13 16 21 21 21 13z m-410 -90 c0 -2 -8 -10 -17 -17 -16 -13 -17 -12 -4 4 13 16 21 21 21 13z m310 -41 c-7 -8 -17 -15 -23 -15 -6 0 -2 7 9 15 25 19 30 19 14 0z m-103 -1 c-3 -3 -12 -4 -19 -1 -8 3 -5 6 6 6 11 1 17 -2 13 -5z m-167 -67 c0 -2 -17 -19 -37 -38 l-38 -34 34 38 c33 34 41 42 41 34z m-150 -492 c13 -14 21 -25 18 -25 -2 0 -15 11 -28 25 -13 14 -21 25 -18 25 2 0 15 -11 28 -25z m367 -151 c-3 -3 -12 -4 -19 -1 -8 3 -5 6 6 6 11 1 17 -2 13 -5z m-120 -130 c-3 -3 -12 -4 -19 -1 -8 3 -5 6 6 6 11 1 17 -2 13 -5z m196 -1 c-7 -2 -19 -2 -25 0 -7 3 -2 5 12 5 14 0 19 -2 13 -5z" />
    <path d="M1981 4000 c-71 -26 -128 -66 -162 -113 -34 -47 -78 -176 -86 -250 -8 -75 20 -190 68 -286 64 -129 150 -191 275 -199 62 -4 79 -1 133 23 118 53 248 223 287 375 43 168 -48 353 -212 435 -80 39 -220 46 -303 15z m180 -312 c27 -43 21 -131 -13 -208 -33 -73 -59 -96 -87 -78 -55 34 -83 191 -44 248 36 54 56 70 90 70 27 0 37 -6 54 -32z" />
    <path d="M2236 2840 c-6 -31 -4 -65 19 -240 5 -40 -1 -32 -60 84 -39 77 -65 119 -65 105 0 -56 30 -283 38 -291 5 -5 5 18 1 54 -11 90 -17 158 -14 158 1 0 28 -54 60 -120 33 -67 65 -120 73 -120 8 0 11 7 8 18 -6 22 -34 215 -44 312 -8 67 -9 71 -16 40z" />
    <path d="M2495 2834 c-66 -16 -105 -41 -45 -30 98 19 181 24 241 16 80 -12 79 -12 79 0 0 30 -172 39 -275 14z" />
    <path d="M2075 2685 c3 -71 5 -151 5 -177 0 -30 4 -48 12 -48 13 0 4 248 -12 315 -7 29 -8 5 -5 -90z" />
    <path d="M2538 2663 c-2 -82 -3 -150 -2 -152 2 -1 7 0 13 4 14 8 15 295 2 295 -5 0 -11 -66 -13 -147z" />
    <path d="M2599 2784 c-9 -18 6 -219 16 -214 6 3 10 24 9 47 0 34 4 43 20 47 52 14 56 10 56 -59 0 -42 4 -65 11 -65 16 0 6 191 -11 217 -9 15 -10 11 -6 -23 6 -40 5 -42 -25 -48 -48 -9 -49 -9 -50 32 0 40 -13 81 -20 66z" />
    <path d="M2775 2771 c-36 -6 -37 -7 -14 -12 34 -7 89 0 89 12 0 10 -13 10 -75 0z" />
    <path d="M2741 2668 c-1 -72 1 -79 23 -94 23 -14 28 -14 72 5 26 12 44 24 41 28 -4 3 -25 -2 -47 -12 -50 -23 -70 -10 -70 46 0 38 1 39 35 39 19 0 35 5 35 11 0 6 -14 9 -32 7 -27 -2 -35 2 -45 22 -10 22 -11 15 -12 -52z" />
    <path d="M1221 2398 c-49 -233 -147 -626 -154 -619 -15 15 -52 152 -83 309 -16 78 -31 142 -34 142 -6 0 -21 -120 -45 -373 -8 -86 -30 -284 -49 -440 -48 -394 -48 -387 -22 -387 12 0 53 -12 91 -25 39 -14 72 -25 75 -25 3 0 3 55 1 122 -2 68 0 201 4 297 l7 175 22 -54 c12 -30 26 -55 32 -55 5 0 25 63 45 140 l36 140 5 -360 c5 -362 13 -445 43 -445 8 0 15 5 17 11 2 6 33 13 68 15 95 7 130 14 130 24 0 6 -10 10 -23 10 -13 0 -24 6 -24 13 -1 6 -6 46 -12 87 -12 82 -90 1068 -98 1243 -3 59 -9 107 -13 107 -5 0 -13 -24 -19 -52z m16 -120 c-3 -7 -5 -2 -5 12 0 14 2 19 5 13 2 -7 2 -19 0 -25z m10 -100 c-3 -8 -6 -5 -6 6 -1 11 2 17 5 13 3 -3 4 -12 1 -19z m-300 -110 c-3 -8 -6 -5 -6 6 -1 11 2 17 5 13 3 -3 4 -12 1 -19z m310 -10 c-3 -8 -6 -5 -6 6 -1 11 2 17 5 13 3 -3 4 -12 1 -19z m10 -130 c-3 -7 -5 -2 -5 12 0 14 2 19 5 13 2 -7 2 -19 0 -25z m-340 -70 c-3 -8 -6 -5 -6 6 -1 11 2 17 5 13 3 -3 4 -12 1 -19z m350 -70 c-3 -7 -5 -2 -5 12 0 14 2 19 5 13 2 -7 2 -19 0 -25z m-110 -355 c-1 -65 -3 -12 -3 117 0 129 2 182 3 118 2 -65 2 -171 0 -235z m-92 309 c-3 -3 -11 0 -18 7 -9 10 -8 11 6 5 10 -3 15 -9 12 -12z m-168 -74 c-3 -8 -6 -5 -6 6 -1 11 2 17 5 13 3 -3 4 -12 1 -19z m380 -20 c-3 -7 -5 -2 -5 12 0 14 2 19 5 13 2 -7 2 -19 0 -25z m-390 -70 c-3 -8 -6 -5 -6 6 -1 11 2 17 5 13 3 -3 4 -12 1 -19z m400 -65 c-3 -10 -5 -4 -5 12 0 17 2 24 5 18 2 -7 2 -21 0 -30z m-410 -5 c-3 -8 -6 -5 -6 6 -1 11 2 17 5 13 3 -3 4 -12 1 -19z m-10 -80 c-3 -8 -6 -5 -6 6 -1 11 2 17 5 13 3 -3 4 -12 1 -19z m430 -50 c-3 -7 -5 -2 -5 12 0 14 2 19 5 13 2 -7 2 -19 0 -25z m-320 -70 c-2 -13 -4 -3 -4 22 0 25 2 35 4 23 2 -13 2 -33 0 -45z m330 -70 c-3 -7 -5 -2 -5 12 0 14 2 19 5 13 2 -7 2 -19 0 -25z m-140 -160 c-3 -7 -5 -2 -5 12 0 14 2 19 5 13 2 -7 2 -19 0 -25z" />
    <path d="M2384 2362 c-6 -31 -9 -32 -55 -32 -43 0 -55 -5 -92 -39 -48 -45 -119 -160 -170 -276 -147 -335 -118 -755 64 -919 55 -50 102 -66 193 -66 103 0 220 55 248 116 6 13 17 24 25 24 7 0 13 5 13 10 0 6 -4 10 -10 10 -17 0 -90 71 -90 88 0 11 -12 5 -37 -20 -74 -70 -143 -85 -207 -43 -38 25 -83 126 -102 230 -33 180 6 392 89 484 41 44 99 81 131 81 26 1 28 2 14 11 -16 9 -18 27 -18 142 1 73 5 152 10 177 4 25 6 47 4 49 -2 2 -7 -10 -10 -27z m-243 -1239 c13 -16 12 -17 -3 -4 -17 13 -22 21 -14 21 2 0 10 -8 17 -17z" />
    <path d="M4125 2329 c-117 -26 -140 -44 -125 -101 15 -58 31 -342 40 -701 5 -192 11 -351 14 -355 3 -3 6 3 7 14 0 11 3 14 6 6 3 -7 -1 -19 -8 -28 -21 -25 2 -35 110 -46 97 -11 150 -6 219 19 6 3 12 -2 12 -11 0 -9 5 -16 11 -16 6 0 8 11 5 28 -2 15 -8 54 -11 87 -10 101 -16 125 -29 118 -6 -4 -4 2 4 12 17 21 14 20 -65 -8 -22 -8 -71 -18 -110 -22 l-70 -6 -2 165 -2 165 52 -6 c29 -3 56 -11 60 -17 4 -6 5 21 2 59 -10 118 -8 115 -65 115 l-50 0 -1 128 c0 70 -2 134 -4 142 -1 8 -6 27 -10 43 l-7 27 128 0 c84 0 138 5 154 13 24 12 25 17 26 100 l2 87 -127 -1 c-69 -1 -144 -5 -166 -10z m282 -91 c-3 -8 -6 -5 -6 6 -1 11 2 17 5 13 3 -3 4 -12 1 -19z m-360 -270 c-3 -8 -6 -5 -6 6 -1 11 2 17 5 13 3 -3 4 -12 1 -19z m10 -165 c-3 -10 -5 -4 -5 12 0 17 2 24 5 18 2 -7 2 -21 0 -30z m126 -140 c-7 -2 -21 -2 -30 0 -10 3 -4 5 12 5 17 0 24 -2 18 -5z m-116 -415 c-3 -8 -6 -5 -6 6 -1 11 2 17 5 13 3 -3 4 -12 1 -19z m130 -104 c-3 -3 -12 -4 -19 -1 -8 3 -5 6 6 6 11 1 17 -2 13 -5z" />
    <path d="M2701 2318 c-8 -41 -19 -507 -20 -840 -1 -345 1 -388 15 -388 8 0 13 -3 11 -7 -6 -10 119 -10 129 -1 4 5 1 8 -7 8 -13 0 -14 11 -7 68 9 85 12 430 3 457 -4 12 -3 15 2 9 10 -14 69 -34 98 -34 30 0 35 -30 33 -194 -1 -91 -3 -117 -8 -86 -6 40 -7 37 -8 -30 -1 -41 1 -105 5 -142 l6 -68 49 0 c37 0 47 3 42 13 -6 9 -5 9 7 0 12 -10 14 68 14 592 0 390 -4 607 -10 613 -5 6 -32 13 -60 17 l-50 6 -1 -45 c-1 -25 1 -44 5 -42 3 2 5 -93 5 -212 -1 -125 1 -196 6 -167 l7 50 1 -54 2 -53 -44 6 c-53 8 -96 -1 -96 -21 0 -8 -3 -12 -7 -10 -5 3 -5 58 -1 124 3 65 6 159 5 208 l-1 90 -6 -90 c-6 -88 -6 -87 -8 47 -2 133 -3 137 -24 141 -19 4 -18 4 5 6 39 2 26 17 -20 24 -21 3 -45 8 -54 11 -9 4 -17 1 -18 -6z m356 -410 c-2 -29 -3 -8 -3 47 0 55 1 79 3 53 2 -26 2 -71 0 -100z m-159 -135 c-10 -2 -26 -2 -35 0 -10 3 -2 5 17 5 19 0 27 -2 18 -5z m149 -450 c-1 -60 -3 -11 -3 107 0 118 2 167 3 108 2 -60 2 -156 0 -215z m-120 291 c-3 -3 -12 -4 -19 -1 -8 3 -5 6 6 6 11 1 17 -2 13 -5z m-110 -326 c-2 -13 -4 -3 -4 22 0 25 2 35 4 23 2 -13 2 -33 0 -45z m-120 -80 c-2 -18 -4 -6 -4 27 0 33 2 48 4 33 2 -15 2 -42 0 -60z m110 -80 c-3 -8 -6 -5 -6 6 -1 11 2 17 5 13 3 -3 4 -12 1 -19z m250 -20 c-3 -7 -5 -2 -5 12 0 14 2 19 5 13 2 -7 2 -19 0 -25z" />
    <path d="M3205 2313 c11 -30 6 -323 -11 -598 -15 -250 -16 -612 0 -646 4 -8 32 -21 67 -28 57 -13 61 -13 83 8 l23 22 7 -32 c3 -18 9 -30 12 -27 3 3 -2 69 -10 146 -9 77 -23 278 -31 448 -31 635 -36 708 -48 716 -7 4 -32 8 -56 8 -37 0 -42 -2 -36 -17z m22 -290 c-2 -16 -4 -5 -4 22 0 28 2 40 4 28 2 -13 2 -35 0 -50z m0 -100 c-3 -10 -5 -2 -5 17 0 19 2 27 5 18 2 -10 2 -26 0 -35z m100 -405 c-3 -8 -6 -5 -6 6 -1 11 2 17 5 13 3 -3 4 -12 1 -19z m-10 -464 c-3 -3 -12 -4 -19 -1 -8 3 -5 6 6 6 11 1 17 -2 13 -5z" />
    <path d="M3440 2292 c0 -7 6 -12 13 -12 8 0 8 -3 -2 -9 -25 -16 -12 -1038 15 -1168 5 -27 12 -34 40 -39 19 -3 45 -3 59 0 16 4 25 2 25 -5 0 -7 2 -10 6 -7 7 8 -24 515 -41 662 -10 88 -11 124 -3 131 8 7 9 6 4 -2 -4 -7 1 -27 10 -45 9 -18 34 -82 56 -142 82 -229 191 -472 244 -541 21 -27 29 -30 86 -33 55 -2 61 -1 46 11 -11 8 -18 28 -18 46 0 18 -3 30 -7 28 -5 -3 -8 32 -8 76 0 151 -18 462 -25 442 -4 -11 -6 43 -3 120 3 99 1 136 -6 125 -7 -11 -9 10 -4 73 4 62 3 87 -5 87 -8 0 -10 18 -6 59 4 39 3 61 -5 65 -16 10 -14 37 6 58 15 17 14 18 -40 18 -30 0 -62 3 -70 6 -10 4 -16 -4 -19 -25 -9 -59 31 -675 47 -726 3 -11 -11 13 -32 53 -21 40 -43 69 -47 65 -5 -4 -6 -2 -2 5 8 14 -57 206 -110 320 -47 104 -104 193 -116 186 -7 -4 -8 -2 -4 5 9 15 -21 64 -34 56 -6 -3 -7 0 -5 7 3 8 -6 25 -20 38 -14 13 -25 18 -25 12z m367 -134 c-3 -8 -6 -5 -6 6 -1 11 2 17 5 13 3 -3 4 -12 1 -19z m-350 -70 c-3 -7 -5 -2 -5 12 0 14 2 19 5 13 2 -7 2 -19 0 -25z m360 -90 c-3 -7 -5 -2 -5 12 0 14 2 19 5 13 2 -7 2 -19 0 -25z m-350 -510 c-1 -73 -3 -16 -3 127 0 143 2 203 3 133 2 -70 2 -187 0 -260z m360 350 c-3 -7 -5 -2 -5 12 0 14 2 19 5 13 2 -7 2 -19 0 -25z m-290 -70 c-3 -8 -6 -5 -6 6 -1 11 2 17 5 13 3 -3 4 -12 1 -19z m300 -80 c-3 -7 -5 -2 -5 12 0 14 2 19 5 13 2 -7 2 -19 0 -25z m-290 -40 c-3 -8 -6 -5 -6 6 -1 11 2 17 5 13 3 -3 4 -12 1 -19z m10 -130 c-3 -7 -5 -2 -5 12 0 14 2 19 5 13 2 -7 2 -19 0 -25z m390 -60 c-3 -7 -5 -2 -5 12 0 14 2 19 5 13 2 -7 2 -19 0 -25z m-380 -100 c-3 -7 -5 -2 -5 12 0 14 2 19 5 13 2 -7 2 -19 0 -25z m390 -70 c-3 -7 -5 -2 -5 12 0 14 2 19 5 13 2 -7 2 -19 0 -25z m-380 -80 c-3 -7 -5 -2 -5 12 0 14 2 19 5 13 2 -7 2 -19 0 -25z m-100 -65 c-3 -10 -5 -4 -5 12 0 17 2 24 5 18 2 -7 2 -21 0 -30z" />
    <path d="M1579 2250 c-1 -3 -4 -160 -9 -350 -6 -264 -14 -405 -35 -599 -15 -139 -24 -269 -20 -287 6 -34 7 -34 48 -28 88 11 90 12 83 42 -5 20 -4 23 4 12 7 -11 10 22 10 111 l0 126 50 -16 49 -16 27 -115 26 -115 101 -17 c56 -9 103 -15 106 -12 2 2 -3 10 -11 17 -9 6 -49 113 -88 237 -123 387 -324 995 -332 1005 -4 5 -8 7 -9 5z m18 -402 c-2 -29 -3 -8 -3 47 0 55 1 79 3 53 2 -26 2 -71 0 -100z m106 -325 l36 -101 -22 -6 c-12 -3 -33 -6 -46 -6 -24 0 -24 0 -18 83 4 45 7 95 7 111 0 16 2 27 4 25 2 -2 20 -50 39 -106z" />
  </g>
</svg>